# xmcd
#
# Track frame offsets: 
#        150
#        55117
#        96052
#        109564
#        168701
#        199801
#        229452
#
# Disc length: 3257 seconds
#
# Revision: 0
# Processed by: cddbd v1.5.1PL0 Copyright (c) Steve Scherf et al.
# Submitted via: ExactAudioCopy v0.95a3
#
DISCID=5a0cb707
DTITLE=Prince - Yellow (Play With Me)
DYEAR=1900
DGENRE=
TTITLE0=Just My Imagination
TTITLE1=Under The Cherry Moon -- Instrumental Jam -- Dead On It -- Hou
TTITLE1=sequake
TTITLE2=Forever In My Life
TTITLE3=Strange Relationship
TTITLE4=Purple Rain (Grammy Awards)
TTITLE5=Baby I'm A Star (Grammy Awards)
TTITLE6=4 The Tears In Your Eyes (Live Aid)
EXTD=
EXTT0=
EXTT1=
EXTT2=
EXTT3=
EXTT4=
EXTT5=
EXTT6=
PLAYORDER=
